<svg width="38" height="38" viewBox="0 0 38 38" fill="none" xmlns="http://www.w3.org/2000/svg">
<path d="M34.7422 0.250122H3.45312C1.74414 0.250122 0.25 1.48059 0.25 3.17004V34.5275C0.25 36.2267 1.74414 37.7404 3.45312 37.7404H34.7324C36.4512 37.7404 37.7402 36.2169 37.7402 34.5275V3.17004C37.75 1.48059 36.4512 0.250122 34.7422 0.250122ZM34.4297 34.6251H3.67773C3.50195 34.6251 3.375 34.4884 3.375 34.3224V3.57043C3.375 3.46301 3.47266 3.37512 3.57031 3.37512H34.4297C34.5273 3.37512 34.625 3.47278 34.625 3.57043V34.4298C34.625 34.5177 34.5371 34.6251 34.4297 34.6251Z" fill="black"/>
</svg>
